<?xml version="1.0" encoding="UTF-8" standalone="no"?><!DOCTYPE svg PUBLIC "-//W3C//DTD SVG 1.1//EN" "http://www.w3.org/Graphics/SVG/1.1/DTD/svg11.dtd"><svg width="100%" height="100%" viewBox="0 0 988 609" version="1.1" xmlns="http://www.w3.org/2000/svg" xmlns:xlink="http://www.w3.org/1999/xlink" xml:space="preserve" xmlns:serif="http://www.serif.com/" style="fill-rule:evenodd;clip-rule:evenodd;stroke-linejoin:round;stroke-miterlimit:2;"><g><path d="M270.122,147.653c-1.52,24.589 -3.423,48.637 -5.708,72.141c-2.286,23.505 -3.999,47.371 -5.141,71.599c-1.085,15.188 -1.898,29.924 -2.441,44.207c-0.542,14.284 -0.632,28.296 -0.271,42.038c0.362,13.741 1.356,27.663 2.983,41.766c1.628,14.103 4.249,28.748 7.866,43.936c1.808,8.678 0.813,13.018 -2.984,13.018c-3.797,0 -9.13,-1.447 -16.001,-4.34c-10.848,-5.062 -19.256,-11.39 -25.222,-18.984c-5.967,-7.594 -10.306,-15.821 -13.018,-24.68c-2.713,-8.86 -4.34,-18.352 -4.882,-28.477c-0.543,-10.125 -0.814,-20.25 -0.814,-30.376c-0.723,-15.549 -0.723,-31.008 0,-46.376c0.723,-15.369 1.808,-30.828 3.255,-46.377c1.808,-20.973 3.345,-41.947 4.61,-62.92c1.266,-20.974 2.622,-41.947 4.068,-62.921c1.085,-15.91 1.537,-30.194 1.356,-42.851c-0.18,-12.656 -3.525,-22.6 -10.034,-29.832c-7.956,-9.041 -18.081,-15.007 -30.376,-17.9c-12.294,-2.893 -25.222,-3.436 -38.783,-1.627c-13.56,1.808 -27.12,5.695 -40.681,11.662c-13.56,5.966 -25.493,13.379 -35.799,22.239c-10.306,8.859 -18.533,18.894 -24.68,30.104c-6.148,11.21 -8.498,22.781 -7.052,34.714c1.808,16.635 8.137,31.28 18.985,43.936c5.786,6.148 12.566,11.12 20.341,14.917c7.774,3.797 16.001,5.695 24.679,5.695c9.041,0 17.358,-1.898 24.952,-5.695c7.594,-3.797 14.464,-8.769 20.612,-14.917c12.656,-13.741 18.984,-30.737 18.984,-50.987c0,-6.147 -1.085,-12.114 -3.254,-17.9c-2.17,-5.786 -5.244,-10.667 -9.221,-14.645c-8.318,-8.317 -17.629,-12.656 -27.935,-13.018c-10.306,-0.362 -19.798,3.797 -28.477,12.476c-7.232,7.232 -11.391,14.826 -12.475,22.781c-1.085,7.956 -0.362,14.645 2.169,20.07c2.532,5.424 6.328,8.769 11.391,10.034c5.063,1.266 10.306,-1.175 15.73,-7.322c0.362,-0.724 1.085,-1.899 2.17,-3.526c1.085,-1.627 2.35,-3.074 3.797,-4.339c1.446,-1.266 2.893,-2.17 4.339,-2.713c1.446,-0.542 2.712,-0.09 3.797,1.357c1.446,1.446 1.989,3.164 1.627,5.152c-0.361,1.989 -1.085,4.069 -2.169,6.238c-1.085,2.17 -2.441,4.249 -4.069,6.238c-1.627,1.989 -2.983,3.526 -4.068,4.611c-6.147,4.339 -12.114,6.509 -17.9,6.509c-5.785,0 -10.848,-1.537 -15.187,-4.611c-4.34,-3.074 -7.865,-7.413 -10.577,-13.018c-2.712,-5.605 -3.888,-11.843 -3.526,-18.713c0.362,-8.679 2.441,-16.544 6.238,-23.595c3.797,-7.052 8.588,-12.838 14.374,-17.358c5.786,-4.52 12.204,-7.774 19.256,-9.763c7.051,-1.989 14.193,-2.441 21.425,-1.356c7.232,1.084 14.103,3.797 20.612,8.136c6.509,4.339 12.114,10.667 16.815,18.984c2.893,5.063 4.791,9.854 5.695,14.375c0.904,4.52 1.537,9.492 1.899,14.916c0,11.572 -1.989,22.33 -5.967,32.274c-3.978,9.944 -9.402,18.713 -16.272,26.307c-7.233,7.594 -15.459,13.741 -24.68,18.442c-9.221,4.701 -19.256,7.052 -30.105,7.052c-10.486,0 -20.34,-2.351 -29.561,-7.052c-9.221,-4.701 -17.448,-10.848 -24.68,-18.442c-6.871,-7.594 -12.295,-16.092 -16.273,-25.494c-3.977,-9.401 -5.966,-19.165 -5.966,-29.29c0,-20.612 5.876,-38.331 17.628,-53.157c11.753,-14.826 26.669,-26.85 44.75,-36.071c18.08,-9.221 38.061,-15.911 59.941,-20.069c21.88,-4.159 43.002,-6.057 63.365,-5.695c13.453,0 24.453,1.627 32.999,4.881c8.546,3.255 15.363,7.685 20.451,13.29c5.088,5.604 8.722,12.113 10.903,19.527c2.181,7.413 3.452,15.097 3.814,23.052c0.361,7.956 0.271,16.092 -0.271,24.409c-0.543,8.317 -0.995,16.092 -1.356,23.324Z" style="fill:#fff;fill-rule:nonzero;"/><path d="M417.677,207.861c7.594,0 13.651,2.17 18.171,6.509c4.52,4.34 7.865,9.673 10.035,16.002c2.169,6.328 3.073,13.108 2.712,20.34c-0.362,7.232 -1.808,13.741 -4.339,19.527c-2.532,5.786 -6.057,10.306 -10.578,13.561c-4.52,3.254 -9.854,3.977 -16.001,2.169c-5.424,-1.446 -9.221,-3.706 -11.391,-6.78c-2.169,-3.074 -3.345,-6.599 -3.525,-10.577c-0.181,-3.978 0.361,-7.956 1.627,-11.933c1.266,-3.978 2.35,-7.504 3.254,-10.577c0.904,-3.074 1.356,-5.515 1.356,-7.323c0,-1.808 -1.084,-2.35 -3.254,-1.627c-2.531,0.723 -4.882,2.441 -7.051,5.153c-2.17,2.712 -4.249,5.785 -6.238,9.221c-1.989,3.435 -3.707,6.87 -5.153,10.306c-1.447,3.435 -2.532,6.238 -3.255,8.407c-5.062,12.657 -9.854,26.127 -14.374,40.41c-4.52,14.284 -8.769,27.935 -12.747,40.953c-1.446,5.424 -2.712,10.125 -3.797,14.103c-1.084,3.977 -1.808,7.774 -2.169,11.39c-0.362,3.616 -0.362,7.413 0,11.391c0.361,3.978 1.265,8.86 2.712,14.645c0.723,2.893 1.808,6.329 3.254,10.306c1.447,3.978 2.351,7.232 2.712,9.764c0.362,2.531 -0.271,4.429 -1.898,5.695c-1.627,1.266 -3.526,2.079 -5.695,2.441c-2.17,0.362 -4.52,0.452 -7.052,0.271c-2.531,-0.181 -4.52,-0.452 -5.966,-0.813c-9.764,-2.893 -17.358,-9.674 -22.782,-20.341c-5.424,-10.668 -9.492,-22.691 -12.204,-36.071c-2.712,-13.379 -4.34,-26.759 -4.882,-40.139c-0.542,-13.379 -0.814,-24.228 -0.814,-32.545c0.362,-10.486 0.995,-21.968 1.899,-34.443c0.904,-12.476 2.441,-23.957 4.61,-34.444c2.893,-15.187 11.753,-20.431 26.579,-15.73c5.786,1.808 10.215,4.159 13.289,7.052c3.074,2.893 5.153,6.238 6.238,10.034c1.085,3.797 1.537,7.956 1.356,12.476c-0.181,4.52 -0.633,9.312 -1.356,14.374c-2.893,13.741 -4.701,25.765 -5.424,36.071c-0.724,10.306 -0.724,22.51 0,36.613c0,0.362 0.09,1.175 0.271,2.441c0.181,1.265 0.271,2.441 0.271,3.526c0,1.084 0.09,1.717 0.271,1.898c0.181,0.181 0.452,-0.452 0.814,-1.898c3.254,-14.465 6.871,-28.206 10.848,-41.224c3.978,-13.018 8.679,-26.398 14.103,-40.139c2.17,-5.063 4.52,-10.487 7.051,-16.273c2.532,-5.785 5.605,-11.209 9.222,-16.272c3.616,-5.063 7.774,-9.312 12.475,-12.747c4.701,-3.435 10.306,-5.153 16.815,-5.153Z" style="fill:#fff;fill-rule:nonzero;"/><path d="M565.233,326.108c3.616,-10.848 7.232,-16.363 10.848,-16.544c3.616,-0.18 4.158,4.792 1.627,14.917c-1.808,6.87 -4.52,15.82 -8.136,26.85c-3.616,11.029 -8.136,21.696 -13.56,32.002c-5.425,10.306 -11.753,19.075 -18.985,26.307c-7.232,7.233 -15.369,10.487 -24.409,9.764c-9.402,-1.085 -17.357,-4.701 -23.866,-10.848c-6.509,-6.148 -11.933,-13.832 -16.273,-23.053c-4.339,-9.221 -7.594,-19.437 -9.763,-30.647c-2.17,-11.21 -3.797,-22.329 -4.882,-33.358c-1.085,-11.03 -1.537,-21.607 -1.356,-31.732c0.181,-10.125 0.633,-18.623 1.356,-25.493c0.362,-3.978 0.723,-8.498 1.085,-13.561c0.361,-5.062 0.904,-9.402 1.627,-13.018c0.723,-3.254 3.526,-5.153 8.408,-5.695c4.881,-0.543 10.306,-0.181 16.272,1.085c5.967,1.265 11.662,3.345 17.086,6.237c5.424,2.893 8.86,6.148 10.306,9.764c0.723,1.808 1.175,4.882 1.356,9.221c0.181,4.339 0.181,9.04 0,14.103l-1.356,24.951c-0.361,3.255 -0.633,9.764 -0.813,19.527c-0.181,9.764 0.271,19.889 1.356,30.375c1.084,10.487 2.892,19.889 5.424,28.206c2.531,8.317 6.328,12.476 11.39,12.476l1.085,0c4.701,-0.362 8.86,-2.984 12.476,-7.865c3.616,-4.882 6.78,-10.668 9.492,-17.358c2.712,-6.69 5.063,-13.47 7.052,-20.34c1.989,-6.871 3.706,-12.295 5.153,-16.273Zm-36.342,-117.704c-6.509,5.785 -14.374,7.684 -23.595,5.695c-9.222,-1.989 -16.906,-7.142 -23.053,-15.459c-4.34,-5.424 -6.871,-11.119 -7.594,-17.086c-0.723,-5.967 0,-11.3 2.17,-16.001c2.169,-4.701 5.605,-8.408 10.306,-11.12c4.701,-2.712 10.486,-3.345 17.357,-1.898l2.17,0c2.531,0.723 4.701,1.537 6.509,2.441c1.808,0.904 3.977,2.079 6.509,3.525c9.401,7.594 15.097,16.092 17.086,25.494c1.989,9.402 -0.633,17.538 -7.865,24.409Z" style="fill:#fff;fill-rule:nonzero;"/><path d="M672.107,323.396c2.169,-8.679 4.972,-12.837 8.407,-12.476c3.436,0.362 4.611,5.244 3.526,14.646c-0.723,6.87 -3.616,12.747 -8.679,17.628c-5.062,4.882 -10.306,9.312 -15.73,13.289c-4.339,3.255 -6.418,6.329 -6.238,9.222c0.181,2.892 0.272,6.328 0.272,10.305c-0.356,11.21 -2.857,21.697 -7.501,31.461c-4.644,9.763 -10.806,18.351 -18.485,25.764c-7.678,7.414 -16.658,13.109 -26.938,17.087c-10.281,3.977 -21.026,5.966 -32.236,5.966c-8.678,0 -14.916,-2.079 -18.713,-6.238c-3.797,-4.158 -5.696,-9.221 -5.696,-15.187c0,-5.967 1.447,-12.114 4.34,-18.442c2.893,-6.329 6.69,-11.662 11.391,-16.002c5.785,-5.424 12.837,-10.215 21.154,-14.374c8.317,-4.158 14.283,-8.046 17.9,-11.662c2.892,-3.254 3.254,-7.503 1.084,-12.747c-2.169,-5.243 -5.424,-10.577 -9.763,-16.001c-4.339,-5.424 -8.86,-10.487 -13.561,-15.188l-22.781,-22.781c-5.063,-5.424 -9.402,-10.939 -13.018,-16.544c-3.616,-5.605 -6.509,-12.023 -8.679,-19.256c-2.893,-10.125 -3.164,-19.707 -0.813,-28.748c2.35,-9.04 6.509,-16.815 12.475,-23.324c5.967,-6.509 13.38,-11.571 22.239,-15.187c8.86,-3.616 18.352,-5.244 28.477,-4.882c5.424,0.362 11.008,1.356 16.752,2.983c5.743,1.628 11.026,4.068 15.848,7.323c4.823,3.254 8.93,7.142 12.323,11.662c3.393,4.52 5.449,9.854 6.166,16.001c0.356,7.594 -1.52,13.109 -5.627,16.544c-4.108,3.435 -9.914,3.706 -17.417,0.813l-2.678,-1.084c-6.786,-2.532 -10.179,-5.063 -10.179,-7.594l0,-11.391c0.361,-7.232 -1.175,-12.204 -4.611,-14.916c-3.435,-2.712 -7.322,-3.526 -11.662,-2.441c-4.339,1.085 -8.226,4.068 -11.662,8.95c-3.435,4.881 -5.153,11.3 -5.153,19.255c0,4.34 1.078,8.769 3.234,13.29c2.155,4.52 4.759,8.95 7.81,13.289c3.051,4.339 6.192,8.588 9.424,12.747c3.232,4.158 6.283,7.865 9.153,11.119c5.029,6.148 10.417,12.476 16.163,18.985c5.746,6.509 10.772,13.018 15.077,19.527c2.876,4.339 5.302,7.865 7.276,10.577c1.975,2.712 5.118,2.441 9.429,-0.814c3.978,-2.893 7.684,-5.876 11.12,-8.95c3.435,-3.073 5.695,-7.141 6.78,-12.204Zm-90.584,110.653c1.808,-2.17 3.797,-4.972 5.967,-8.407c2.169,-3.436 4.158,-7.142 5.966,-11.12c1.808,-3.978 3.345,-7.865 4.611,-11.662c1.266,-3.797 1.898,-7.142 1.898,-10.035c0,-2.169 -0.813,-3.164 -2.441,-2.983c-1.627,0.181 -3.435,0.723 -5.424,1.627c-1.989,0.904 -3.887,2.08 -5.695,3.526c-1.808,1.447 -3.074,2.351 -3.797,2.712c-2.893,2.17 -6.057,4.701 -9.492,7.594c-3.436,2.893 -6.6,5.967 -9.493,9.221c-2.892,3.255 -5.062,6.78 -6.509,10.577c-1.446,3.797 -1.808,7.865 -1.084,12.205c1.084,3.254 2.712,5.243 4.881,5.966c2.17,0.723 4.52,0.633 7.052,-0.271c2.531,-0.904 5.062,-2.17 7.594,-3.797c2.531,-1.627 4.52,-3.345 5.966,-5.153Z" style="fill:#fff;fill-rule:nonzero;"/><path d="M821.29,326.108c3.616,-10.848 7.322,-16.363 11.119,-16.544c3.797,-0.18 4.43,4.792 1.899,14.917c-2.17,9.402 -5.425,19.256 -9.764,29.562c-4.339,10.306 -9.763,19.707 -16.272,28.205c-6.509,8.498 -14.194,15.55 -23.053,21.155c-8.86,5.605 -18.894,8.407 -30.104,8.407c-20.251,0 -36.523,-5.063 -48.818,-15.188c-12.295,-10.125 -21.154,-22.691 -26.578,-37.698c-5.424,-15.007 -7.684,-31.279 -6.78,-48.817c0.904,-17.538 4.52,-33.72 10.848,-48.547c6.328,-14.826 15.097,-27.211 26.307,-37.155c11.21,-9.944 24.409,-14.736 39.597,-14.374l2.169,0c9.764,0.361 17.81,2.802 24.138,7.323c6.328,4.52 11.119,10.215 14.374,17.086c3.254,6.87 4.972,14.555 5.153,23.052c0.181,8.498 -0.995,16.725 -3.526,24.68c-3.616,11.572 -9.492,20.793 -17.628,27.664c-8.137,6.87 -18.533,9.402 -31.189,7.593c-2.17,-0.361 -4.43,-0.904 -6.781,-1.627c-2.35,-0.723 -4.52,-1.085 -6.509,-1.085c-1.989,0 -3.525,0.452 -4.61,1.356c-1.085,0.904 -1.627,2.984 -1.627,6.238c0,5.424 0.904,11.843 2.712,19.256c1.808,7.413 4.52,14.555 8.136,21.425c3.616,6.871 7.865,12.747 12.747,17.629c4.881,4.882 10.577,7.503 17.086,7.865c9.04,0 16.724,-1.989 23.053,-5.967c6.328,-3.977 11.661,-9.04 16.001,-15.187c4.339,-6.148 7.865,-12.837 10.577,-20.07c2.712,-7.232 5.153,-14.283 7.323,-21.154Zm-91.669,-45.563c-1.085,3.255 -2.17,6.871 -3.254,10.848c-1.085,3.978 -0.904,7.594 0.542,10.849c1.446,2.169 2.983,3.525 4.611,4.068c1.627,0.542 3.525,0.994 5.695,1.356c9.763,0 17.267,-3.526 22.51,-10.577c5.244,-7.052 8.769,-14.736 10.577,-23.053c0.362,-1.808 0.543,-4.43 0.543,-7.865c0,-3.435 -0.271,-6.871 -0.814,-10.306c-0.542,-3.435 -1.537,-6.509 -2.983,-9.221c-1.447,-2.712 -3.616,-4.068 -6.509,-4.068c-4.339,0 -8.227,1.356 -11.662,4.068c-3.435,2.712 -6.419,5.967 -8.95,9.764c-2.531,3.796 -4.611,7.955 -6.238,12.475c-1.627,4.52 -2.983,8.408 -4.068,11.662Z" style="fill:#fff;fill-rule:nonzero;"/></g><text x="249.985px" y="580.162px" style="font-family:'Athiti-Light', 'Athiti Light';font-weight:300;font-size:125px;fill:#fff;">Mind &amp; Body</text></svg>