<?xml version="1.0" encoding="UTF-8" standalone="no"?><!DOCTYPE svg PUBLIC "-//W3C//DTD SVG 1.1//EN" "http://www.w3.org/Graphics/SVG/1.1/DTD/svg11.dtd"><svg width="100%" height="100%" viewBox="0 0 64 64" version="1.1" xmlns="http://www.w3.org/2000/svg" xmlns:xlink="http://www.w3.org/1999/xlink" xml:space="preserve" xmlns:serif="http://www.serif.com/" style="fill-rule:evenodd;clip-rule:evenodd;stroke-linejoin:round;stroke-miterlimit:2;"><g><path d="M38.126,14.8c0,-0 1.571,-4.398 3.142,-4.555l-18.85,-0c-3.77,-0 -7.225,2.199 -8.325,6.283l-10.995,32.672c-0,0 -0.943,3.927 -2.514,4.555l19.321,0c3.77,-0.157 6.44,-1.57 7.854,-6.597l10.367,-32.358Z" style="fill:url(#_Linear1);fill-rule:nonzero;"/><path d="M26.031,14.8c0,-0 -1.571,-4.398 -3.142,-4.555l18.85,-0c3.77,-0 7.225,2.199 8.325,6.283l10.838,32.672c0,0 0.943,3.927 2.514,4.555l-19.164,0c-3.77,0 -6.283,-1.413 -7.697,-6.44l-10.524,-32.515Z" style="fill:url(#_Linear2);fill-rule:nonzero;"/></g><defs><linearGradient id="_Linear1" x1="0" y1="0" x2="1" y2="0" gradientUnits="userSpaceOnUse" gradientTransform="matrix(3.12633e-15,-51.0568,51.0568,3.12633e-15,20.926,57.3818)"><stop offset="0" style="stop-color:#f2746a;stop-opacity:1"/><stop offset="0.33" style="stop-color:#f2746a;stop-opacity:1"/><stop offset="0.76" style="stop-color:#c74a40;stop-opacity:1"/><stop offset="1" style="stop-color:#c2453b;stop-opacity:1"/></linearGradient><linearGradient id="_Linear2" x1="0" y1="0" x2="1" y2="0" gradientUnits="userSpaceOnUse" gradientTransform="matrix(2.66426e-15,-43.5107,43.5107,2.66426e-15,43.1526,53.7554)"><stop offset="0" style="stop-color:#042ab1;stop-opacity:1"/><stop offset="0.3" style="stop-color:#1938a6;stop-opacity:0.85"/><stop offset="0.64" style="stop-color:#1a43d3;stop-opacity:0.93"/><stop offset="0.93" style="stop-color:#4d72f3;stop-opacity:0.99"/><stop offset="1" style="stop-color:#4d72f3;stop-opacity:0.99"/></linearGradient></defs></svg>