<svg width="1024" height="1024" viewBox="0 0 1024 1024" fill="none" xmlns="http://www.w3.org/2000/svg">
<path d="M693.596 453.264C674.054 441.892 657.174 432.069 657.174 409.392C657.174 388.348 674.004 377.531 695.297 363.817C724.66 344.93 761.183 321.427 761.183 259.594C761.183 217.001 739.249 178.503 699.408 151.192C654.378 120.326 587.161 104 505.053 104C386.523 104 286.372 166.676 286.372 240.875C286.372 278.245 311.591 292.936 333.845 305.876C353.386 317.248 370.266 327.071 370.266 349.749C370.266 368.754 354.583 379.065 334.721 392.122C304.229 412.172 266.275 437.107 266.275 506.471C266.275 541.634 288.815 576.459 328.117 602.001C374.629 632.227 441.812 648.199 522.388 648.199C640.918 648.199 741.068 588.691 741.068 518.265C741.068 480.896 715.849 466.204 693.596 453.264ZM386.287 391.97C390.633 379.199 394.39 368.181 394.39 349.749C394.39 314.89 368.868 298.496 346.345 284.024C326.736 271.421 309.788 260.537 309.788 240.184C309.788 213.867 329.01 186.253 362.517 164.435C397.288 141.791 442.924 128.801 487.718 128.801C568.108 128.801 658.016 197.777 658.016 290.106C658.016 313.559 652.255 329.244 646.14 345.857C639.705 363.362 633.05 381.474 633.05 409.375C633.05 444.234 658.572 460.627 681.096 475.1C700.705 487.702 717.652 498.586 717.652 518.939C717.652 542.493 700.806 564.935 670.23 582.17C640.951 598.665 602.98 608.134 566.07 608.134C453.15 608.134 374.276 550.934 374.276 469.018C374.276 427.217 380.66 408.499 386.287 391.97Z" fill="#FFBD00"/>
<path d="M171.664 804.921C171.664 795.179 177.953 787.154 183.442 779.456C188.947 771.904 191.3 767.671 191.3 762.473C191.3 757.913 188.784 755.56 184.7 755.56C179.358 755.56 177.48 759.809 175.274 759.809C172.595 759.809 171.664 758.077 172.285 755.56C174.801 747.224 182.658 739.052 193.815 739.052C204.335 739.052 210.314 745.344 210.314 755.396C210.314 764.043 206.23 770.793 200.578 779.129C196.494 784.947 193.031 789.982 193.031 796.258C193.031 802.224 197.752 805.999 204.352 805.999C208.909 805.999 212.83 804.577 217.698 800.034C222.566 795.473 225.866 789.508 231.518 775.19C237.807 758.534 236.549 756.017 238.428 749.087C239.833 743.268 242.985 739.967 251.153 739.967C259.795 739.967 264.189 742.484 262.784 749.087C261.69 753.811 257.606 754.432 254.142 761.983C248.964 771.577 240.47 790.276 240.633 799.56C240.796 804.594 242.838 808.369 247.396 808.369C254.306 808.369 255.4 803.973 257.916 803.973C260.121 803.973 261.379 805.705 260.905 808.68C259.648 817.637 250.843 823.308 239.849 823.308C233.086 823.308 227.908 819.843 225.229 815.136C222.713 810.412 223.35 805.705 221.308 805.705C218.629 805.705 217.387 811.213 213.287 815.447C208.256 820.955 202.914 824.093 194.126 824.093C180.306 824.109 171.664 816.247 171.664 804.921Z" fill="#FFBD00" stroke="#FFBD00" stroke-width="1.07877" stroke-miterlimit="10"/>
<path d="M319.507 806.61C319.507 797.659 323.755 791.061 328.46 782.894C332.544 775.985 336.628 770.791 336.628 763.409C336.628 757.447 331.76 753.674 325.16 753.674C320.455 753.674 316.371 755.079 311.486 759.636C306.455 764.34 302.534 770.481 297.666 783.351C294.839 790.734 292.634 796.859 291.229 802.51C290.755 806.593 291.229 809.419 290.755 812.882C290.445 819.17 286.835 821.996 276.935 821.996C269.861 821.996 265.777 820.575 265.777 814.923C265.777 811.624 267.819 808.488 271.282 805.336C276.461 800.305 279.14 793.707 283.388 780.836C289.04 765.761 290.298 756.336 281.345 756.336C274.909 756.336 273.961 761.53 271.609 761.53C269.404 761.53 267.051 760.273 268.146 756.026C271.756 745.965 281.035 738.272 290.461 738.909C296.114 739.219 299.414 741.424 301.456 745.671C303.498 750.064 302.861 754.311 304.445 754.311C306.324 754.311 309.003 750.391 313.398 746.291C318.903 741.261 325.176 737.651 334.292 737.651C347.966 737.651 356.755 745.507 356.755 756.973C356.755 766.561 350.318 774.401 345.286 782.584C340.729 790.277 337.902 794.997 337.902 800.485C337.902 805.989 340.418 808.505 344.502 808.505C348.897 808.505 351.886 804.111 354.239 804.111C355.97 804.111 356.918 805.679 356.281 808.194C354.876 815.266 347.492 822.959 335.697 822.959C325.16 822.943 319.507 816.671 319.507 806.61Z" fill="#FFBD00" stroke="#FFBD00" stroke-width="1.07877" stroke-miterlimit="10"/>
<path d="M364.633 771.903C372.175 750.697 386.934 738.117 407.489 738.117C436.696 738.117 447.994 757.918 439.521 786.362C433.088 808.516 418.166 823.759 395.391 823.759C365.727 823.759 354.266 801.442 364.633 771.903ZM424.925 771.119C424.925 759.814 418.966 751.628 406.232 751.628C388.959 751.628 378.281 771.119 378.281 789.189C378.281 800.658 383.93 809.3 396.175 809.3C412.681 809.3 424.925 790.904 424.925 771.119Z" fill="#FFBD00" stroke="#FFBD00" stroke-width="1.07877" stroke-miterlimit="10"/>
<path d="M555.433 688.027C543.345 688.027 533.935 693.518 527.597 701.737C525.473 693.256 515.819 688.027 503.681 688.027C486.088 688.027 474.146 699.662 469.115 714.434C466.599 723.553 469.752 722.768 460.473 724.337C452.305 726.069 450.574 727.475 450.1 733.929C449.789 737.851 453.563 737.704 457.957 737.704C465.652 737.541 465.652 738.799 461.878 750.123C455.589 768.981 450.884 783.279 441.769 812.514C438.942 820.684 438.779 826.028 445.542 826.028C455.442 826.028 459.836 821.632 462.515 811.092C468.641 787.038 471.157 770.86 477.283 750.434C481.367 734.877 481.432 737.524 494.631 737.214C499.303 737.148 507.635 737.214 509.333 737.214C517.028 737.05 517.42 738.815 513.646 750.123C507.357 768.981 502.652 783.279 493.537 812.514C490.711 820.684 490.547 826.028 497.31 826.028C507.21 826.028 511.604 821.632 514.283 811.092C520.409 787.038 522.925 770.86 529.051 750.434C533.135 734.877 533.609 738.652 546.808 738.325C557.491 738.162 560.318 738.015 561.886 730.628C562.833 725.448 560.154 724.974 549.16 725.285C535.961 725.595 533.298 725.759 533.756 721.2C534.066 710.349 538.787 699.662 550.875 699.662C558.57 699.825 561.869 702.652 560.775 710.512C560.938 714.908 560.938 716.951 565.022 716.951C573.19 716.951 579.479 713.487 579.79 705.79C580.1 694.939 569.417 688.027 555.433 688.027ZM512.601 724.125C510.608 724.549 502.129 725.138 497.392 725.285C484.193 725.595 481.53 725.759 482.004 721.2C482.314 710.349 487.035 699.662 499.124 699.662C506.818 699.825 510.118 702.652 509.023 710.512C509.186 714.908 509.186 716.951 513.27 716.951C515.949 716.951 518.4 716.575 520.524 715.807C518.661 723.455 521.373 722.638 512.601 724.125Z" fill="#FFBD00" stroke="#FFBD00" stroke-width="1.07877" stroke-miterlimit="10"/>
<path d="M538.674 805.726C539 797.245 543.394 787.964 553.751 774.613C560.987 765.021 564.27 755.446 555.008 755.446C548.556 755.446 546.988 759.694 544.636 759.367C541.647 759.204 540.715 756.54 542.431 752.929C546.351 745.233 558.929 739.252 568.354 739.252C578.089 739.415 582.81 745.069 581.716 753.24C581.095 760.626 575.753 766.132 568.517 777.604C561.608 787.669 557.524 794.892 557.524 801.02C557.524 805.268 559.876 807.621 562.865 807.785C568.991 808.259 571.343 803.7 574.022 803.7C576.064 803.7 577.011 806.216 576.374 808.733C574.643 816.282 566.475 823.504 554.698 823.357C544.799 823.325 538.2 816.249 538.674 805.726Z" fill="#FFBD00" stroke="#FFBD00" stroke-width="1.07877" stroke-miterlimit="10"/>
<path d="M593.261 813.431C588.394 808.089 585.406 800.23 585.406 791.114C585.406 766.754 604.579 738.784 629.223 738.784C638.336 738.784 643.676 742.248 647.285 747.737C649.964 751.348 650.111 752.296 651.368 752.132C654.667 751.969 651.368 740.663 657.493 740.663C662.686 740.663 662.833 745.385 664.091 754.338C664.564 758.112 664.711 761.575 664.711 764.402C664.711 771.639 660.465 773.992 653.72 773.992C648.38 773.992 647.122 770.218 644.297 762.833C641.782 756.87 638.483 753.57 630.48 753.57C615.243 753.57 603.779 770.692 603.779 787.503C603.779 802.125 613.039 809.036 625.614 808.709C634.106 808.709 639.92 805.883 643.84 803.204C648.543 800.214 650.911 798.645 652.626 800.214C654.357 802.093 652.005 805.72 649.474 808.857C644.134 816.552 633.616 823.626 618.999 823.626C608.025 823.642 598.749 819.868 593.261 813.431Z" fill="#FFBD00" stroke="#FFBD00" stroke-width="1.07877" stroke-miterlimit="10"/>
<path d="M668.27 805.324C668.597 796.843 672.991 787.562 683.347 774.212C690.583 764.62 693.867 755.044 684.605 755.044C678.153 755.044 676.584 759.293 674.232 758.966C671.243 758.802 670.312 756.139 672.027 752.527C675.947 744.831 688.525 738.85 697.95 738.85C707.686 739.014 712.406 744.668 711.312 752.838C710.691 760.224 705.35 765.731 698.114 777.202C691.204 787.268 687.12 794.49 687.12 800.618C687.12 804.867 689.472 807.22 692.462 807.383C698.587 807.857 700.939 803.298 703.618 803.298C705.66 803.298 706.608 805.814 705.971 808.331C704.239 815.88 696.072 823.103 684.294 822.956C674.396 822.923 667.796 815.848 668.27 805.324Z" fill="#FFBD00" stroke="#FFBD00" stroke-width="1.07877" stroke-miterlimit="10"/>
<path d="M715.462 775.682C722.212 756.359 739.829 737.983 760.878 737.983C771.403 737.983 775.816 741.119 778.643 745.366C781.16 749.613 781.634 752.912 783.35 752.912C788.694 752.912 787.435 739.404 797.339 739.404C803.941 739.404 805.036 740.662 804.726 744.272C798.287 759.822 794.985 764.542 786.961 783.228C782.712 792.963 782.565 796.262 782.712 800.035C782.876 805.687 786.324 808.512 790.262 808.512C795.77 808.676 798.123 804.903 800.64 804.903C802.683 804.903 803.794 806.781 803.157 810.08C801.588 816.843 794.364 823.425 783.35 823.425C775.325 823.425 769.998 818.705 767.955 812.122C766.696 808.349 766.386 806.307 764.653 806.307C762.774 806.307 762.3 808.823 759.947 811.959C754.75 818.705 748 823.262 736.675 823.262C712.161 823.278 706.964 799.872 715.462 775.682ZM771.73 782.427C778.479 765.62 777.384 751.949 762.3 751.638C747.69 751.475 735.743 763.889 731.658 777.086C726.787 792.946 731.02 807.091 746.742 807.091C760.257 807.091 765.912 796.883 771.73 782.427Z" fill="#FFBD00" stroke="#FFBD00" stroke-width="1.07877" stroke-miterlimit="10"/>
<path d="M808.441 804.455C808.441 794.715 812.051 786.545 818.177 775.074C824.465 763.292 834.038 746.314 838.285 738.454C842.058 730.904 841.895 724.776 834.985 724.776C830.281 724.776 828.859 727.456 826.818 727.456C824.939 727.456 823.208 725.577 824.612 721.492C827.275 714.269 835.769 709.236 845.194 709.236C860.908 709.236 864.828 722.276 857.298 737.212C852.267 746.64 845.521 756.854 838.138 770.694C831.702 783.113 827.455 792.853 827.455 799.765C827.455 805.582 831.375 808.556 835.785 808.72C842.385 808.883 844.737 803.376 847.726 803.376C849.604 803.376 851.026 805.419 850.389 808.246C848.51 815.321 839.069 823.492 826.981 823.492C817.082 823.475 808.441 817.511 808.441 804.455Z" fill="#FFBD00" stroke="#FFBD00" stroke-width="1.07877" stroke-miterlimit="10"/>
<path d="M171.06 909.675C166.683 904.867 164 897.807 164 889.613C164 867.714 181.235 842.557 203.421 842.557C211.615 842.557 216.422 845.671 219.681 850.607C222.077 853.85 222.22 854.712 223.354 854.568C226.325 854.424 223.354 844.25 228.865 844.25C233.529 844.25 233.673 848.483 234.807 856.549C235.222 859.935 235.366 863.05 235.366 865.59C235.366 872.091 231.548 874.215 225.479 874.215C220.671 874.215 219.537 870.829 216.997 864.184C214.729 858.817 211.774 855.846 204.571 855.846C190.866 855.846 180.548 871.244 180.548 886.37C180.548 899.516 188.885 905.729 200.194 905.442C207.829 905.442 213.052 902.902 216.582 900.49C220.815 897.807 222.939 896.385 224.489 897.807C226.038 899.5 223.93 902.759 221.661 905.586C216.854 912.502 207.398 918.859 194.252 918.859C184.333 918.859 176.011 915.457 171.06 909.675Z" fill="#FFBD00" stroke="#FFBD00" stroke-width="1.07877" stroke-miterlimit="10"/>
<path d="M239.918 872.614C246.707 853.542 259.98 842.233 278.492 842.233C304.783 842.233 314.958 860.043 307.323 885.616C301.525 905.534 288.108 919.255 267.615 919.255C240.909 919.255 230.59 899.177 239.918 872.614ZM294.178 871.911C294.178 861.736 288.811 854.389 277.358 854.389C261.817 854.389 252.201 871.911 252.201 888.172C252.201 898.49 257.297 906.253 268.318 906.253C283.156 906.253 294.178 889.721 294.178 871.911Z" fill="#FFBD00" stroke="#FFBD00" stroke-width="1.07877" stroke-miterlimit="10"/>
<path d="M402.391 903.317C402.391 895.538 406.065 889.468 410.17 882.823C414.259 876.035 417.949 870.955 417.949 864.87C417.949 859.215 413.86 855.973 407.63 855.973C404.1 855.973 400.714 857.107 397.024 860.349C392.073 864.438 389.118 870.812 384.454 882.68C379.646 895.266 379.087 899.212 378.943 901.48C378.8 904.866 378.8 906.99 378.528 909.818C378.24 914.625 376.835 917.309 367.922 917.309C359.441 917.309 357.316 915.472 357.316 910.808C357.316 907.134 359.584 905.856 366.916 887.775C371.292 879.293 374.838 872.649 374.838 865.445C374.838 859.503 370.462 855.973 364.105 855.973C360.575 855.973 357.045 857.251 353.227 860.637C348.148 864.87 344.33 871.099 339.938 882.823C335.977 893.845 334.986 897.518 334.571 899.787C334.14 903.604 334.571 906 334.284 909.115C333.996 914.913 330.61 917.453 321.569 917.453C314.781 917.453 311.539 916.191 311.539 911.095C311.539 908.125 313.375 905.297 316.634 902.326C321.442 898.094 323.838 891.88 327.367 880.14C332.032 866.579 333.437 858.241 325.387 858.241C319.733 858.241 318.471 862.905 316.346 862.905C314.366 862.905 312.385 861.627 313.375 857.826C316.49 849.488 323.838 842.699 332.734 842.699C337.398 842.699 341.36 844.105 343.468 848.641C345.305 852.603 344.746 856.42 346.008 856.42C347.844 856.42 349.969 852.746 353.914 848.929C358.866 844.265 364.52 841.294 372.57 841.294C380.205 841.294 384.997 844.408 387.553 848.785C390.092 853.018 388.958 856.835 391.083 856.835C393.063 856.835 393.766 854.152 399.277 848.641C403.509 844.68 408.892 841.581 416.942 841.581C429.098 841.581 436.589 848.37 436.589 858.545C436.589 867.314 430.791 874.661 425.983 882.424C422.165 888.925 419.913 893.158 419.769 898.109C419.769 902.917 422.165 905.17 425.695 905.17C431.062 905.17 432.755 900.793 435.023 900.793C436.716 900.793 437.419 902.342 437.004 904.323C435.455 911.239 428.379 918.315 417.501 918.315C407.902 918.283 402.247 912.629 402.391 903.317Z" fill="#FFBD00" stroke="#FFBD00" stroke-width="1.07877" stroke-miterlimit="10"/>
<path d="M534.354 903.317C534.354 895.538 538.028 889.468 542.133 882.823C546.238 876.035 549.912 870.955 549.912 864.87C549.912 859.215 545.807 855.973 539.593 855.973C536.063 855.973 532.661 857.107 528.987 860.349C524.036 864.438 521.065 870.812 516.401 882.68C511.593 895.266 511.034 899.212 510.89 901.48C510.747 904.866 510.747 906.99 510.459 909.818C510.172 914.625 508.766 917.309 499.853 917.309C491.372 917.309 489.247 915.472 489.247 910.808C489.247 907.134 491.516 905.856 498.863 887.775C503.24 879.293 506.769 872.649 506.769 865.445C506.769 859.503 502.393 855.973 496.036 855.973C492.506 855.973 488.976 857.251 485.158 860.637C480.063 864.87 476.262 871.099 471.869 882.823C467.908 893.845 466.918 897.518 466.502 899.787C466.087 903.604 466.502 906 466.215 909.115C465.927 914.913 462.541 917.453 453.501 917.453C446.712 917.453 443.47 916.191 443.47 911.095C443.47 908.125 445.307 905.297 448.549 902.326C453.357 898.094 455.753 891.88 459.283 880.14C463.947 866.579 465.352 858.241 457.302 858.241C451.648 858.241 450.386 862.905 448.262 862.905C446.281 862.905 444.3 861.627 445.291 857.826C448.405 849.488 455.753 842.699 464.65 842.699C469.314 842.699 473.275 844.105 475.383 848.641C477.22 852.603 476.661 856.42 477.923 856.42C479.76 856.42 481.884 852.746 485.829 848.929C490.781 844.265 496.435 841.294 504.485 841.294C512.12 841.294 516.928 844.408 519.468 848.785C522.007 853.018 520.873 856.835 522.998 856.835C524.978 856.835 525.681 854.152 531.192 848.641C535.424 844.68 540.807 841.581 548.858 841.581C561.013 841.581 568.504 848.37 568.504 858.545C568.504 867.314 562.706 874.661 557.898 882.424C554.081 888.925 551.828 893.158 551.685 898.109C551.685 902.917 554.081 905.17 557.626 905.17C562.993 905.17 564.686 900.793 566.955 900.793C568.648 900.793 569.366 902.342 568.935 904.323C567.386 911.239 560.326 918.315 549.433 918.315C539.881 918.283 534.227 912.629 534.354 903.317Z" fill="#FFBD00" stroke="#FFBD00" stroke-width="1.07877" stroke-miterlimit="10"/>
<path d="M575.421 902.742C575.709 895.107 579.654 886.769 588.982 874.757C595.483 866.132 598.454 857.522 590.116 857.522C584.318 857.522 582.912 861.34 580.788 861.052C578.105 860.909 577.258 858.513 578.807 855.254C582.337 848.338 593.646 842.955 602.127 842.955C610.896 843.099 615.129 848.194 614.139 855.526C613.564 862.171 608.772 867.122 602.271 877.425C596.058 886.465 592.384 892.966 592.384 898.477C592.384 902.295 594.508 904.419 597.192 904.547C602.702 904.962 604.827 900.873 607.223 900.873C609.06 900.873 609.906 903.125 609.347 905.393C607.782 912.182 600.45 918.683 589.844 918.539C580.948 918.571 575.006 912.214 575.421 902.742Z" fill="#FFBD00" stroke="#FFBD00" stroke-width="1.07877" stroke-miterlimit="10"/>
<path d="M712.326 846.502C704.691 846.502 701.72 847.348 703.988 841.981C705.969 837.461 705.825 834.49 702.726 834.49C698.909 834.49 695.091 841.55 688.447 843.962C681.93 846.39 669.264 846.422 662.891 846.502C655.256 846.502 652.285 847.348 654.553 841.981C656.533 837.461 656.39 834.49 653.291 834.49C649.473 834.49 645.656 841.55 639.011 843.962C629.54 847.492 623.039 844.952 620.787 852.572C620.084 855.686 619.381 858.226 626.297 858.37C634.076 858.37 631.951 861.197 626.297 872.921C620.93 884.374 616.682 892.28 616.969 901.321C617.384 913.045 626.01 919.131 636.328 919.131C648.196 919.131 656.118 910.234 658.099 902.743C658.658 900.906 657.955 899.213 656.118 899.213C653.435 899.213 651.454 904.867 642.829 904.867C638.596 904.867 633.932 902.743 633.932 895.826C633.932 888.766 638.596 878.448 643.819 867.139C648.052 857.667 646.79 858.242 658.243 858.242C664.392 858.242 672.842 858.322 675.733 858.386C683.511 858.386 681.387 861.213 675.733 872.937C670.366 884.39 666.117 892.296 666.405 901.337C666.82 913.061 675.445 919.147 685.763 919.147C697.631 919.147 705.554 910.25 707.534 902.759C708.093 900.922 707.39 899.229 705.554 899.229C702.87 899.229 700.89 904.883 692.264 904.883C688.032 904.883 683.368 902.758 683.368 895.842C683.368 888.782 688.032 878.464 693.255 867.155C697.487 857.683 696.226 858.258 707.678 858.258C717.421 858.258 721.111 858.673 722.932 852.891C724.625 846.789 723.06 846.358 712.326 846.502Z" fill="#FFBD00" stroke="#FFBD00" stroke-width="1.07877" stroke-miterlimit="10"/>
<path d="M720.2 907.967C716.095 902.456 714.402 896.099 714.402 888.895C714.402 866.133 729.799 841.407 757.496 841.407C768.389 841.407 775.018 844.522 779.394 849.745C782.637 853.563 784.346 858.786 784.202 864.584C783.915 876.883 776.567 885.78 761.313 887.489C748.743 889.039 739.127 883.815 733.473 879.567C730.933 877.873 729.368 879.998 729.24 886.355C728.537 899.213 737.849 906.417 751.426 906.002C761.313 905.714 767.111 902.328 771.504 898.367C774.746 896.386 777.717 898.223 776.312 901.897C772.782 910.522 762.751 918.573 745.213 918.573C733.058 918.573 725.007 914.34 720.2 907.967ZM771.073 866.565C771.36 857.236 765.418 853.131 756.234 853.131C745.5 853.131 736.731 860.91 734.895 866.98C731.924 876.021 748.599 879.407 757.224 878.704C765.131 878.017 770.785 873.912 771.073 866.565Z" fill="#FFBD00" stroke="#FFBD00" stroke-width="1.07877" stroke-miterlimit="10"/>
<path d="M790.352 907.967C786.247 902.456 784.554 896.099 784.554 888.895C784.554 866.133 799.951 841.407 827.664 841.407C838.541 841.407 845.186 844.522 849.563 849.745C852.805 853.563 854.514 858.786 854.37 864.584C854.083 876.883 846.735 885.78 831.481 887.489C818.911 889.039 809.295 883.815 803.641 879.567C801.101 877.873 799.536 879.998 799.408 886.355C798.705 899.213 808.018 906.417 821.594 906.002C831.481 905.714 837.28 902.328 841.672 898.367C844.915 896.386 847.885 898.223 846.48 901.897C842.95 910.522 832.919 918.573 815.381 918.573C803.21 918.573 795.16 914.34 790.352 907.967ZM841.225 866.565C841.512 857.236 835.57 853.131 826.386 853.131C815.653 853.131 806.884 860.91 805.047 866.98C802.092 876.021 818.751 879.407 827.376 878.704C835.299 878.017 840.937 873.912 841.225 866.565Z" fill="#FFBD00" stroke="#FFBD00" stroke-width="1.07877" stroke-miterlimit="10"/>
<path d="M706.883 732.902C722.712 732.902 722.744 708.303 706.883 708.303C691.054 708.303 691.022 732.902 706.883 732.902Z" fill="#FFBD00"/>
</svg>
